<svg fill="none" height="34" viewBox="0 0 34 34" width="34" xmlns="http://www.w3.org/2000/svg"><path d="m25.9255 8.08943c-.5525-.5525-1.445-.5525-1.9975 0l-6.9275 6.91327-6.9275-6.92744c-.55249-.5525-1.44499-.5525-1.99749 0s-.5525 1.44501 0 1.99744l6.92749 6.9275-6.92749 6.9275c-.5525.5525-.5525 1.445 0 1.9975s1.445.5525 1.99749 0l6.9275-6.9275 6.9275 6.9275c.5525.5525 1.445.5525 1.9975 0s.5525-1.445 0-1.9975l-6.9275-6.9275 6.9275-6.9275c.5384-.53827.5384-1.44494 0-1.98327z" fill="#282573"/></svg>